<svg id="Layer_1" data-name="Layer 1" xmlns="http://www.w3.org/2000/svg" viewBox="0 0 70 72"><defs><style>.cls-1{fill:#ff3838;}.cls-2{fill:#fff;}</style></defs><title>pixil-symbol-color</title><path class="cls-1" d="M53.4,94.28c-7.3-1.13-12.89-4-11.47-11.89l1.52-8.27c1.14-6.85-3-9-5.22-9.86V64A12.86,12.86,0,0,0,47,54l1.42-8.2c1.32-7.89,8.06-11,15.73-12.11a1.81,1.81,0,0,0,1.33-1.35l.38-3.08C66,28.38,65.35,28,64.4,28c-9.67.15-21.8,3.53-24.27,17.82L38.42,55.91c-.56,3.31-5.5,5.35-7,5.5a1.77,1.77,0,0,0-1.33,1.2l-.57,3a1.23,1.23,0,0,0,1,1.35c2,.3,5.49,2.11,4.92,5.49l-1.8,9.93c-2.18,12,9.2,17.45,17.92,17.6a2,2,0,0,0,2-1.27l.57-3.09A.94.94,0,0,0,53.4,94.28Z" transform="translate(-29.5 -28)"/><path class="cls-2" d="M63.91,78.56l11-13.94a2.19,2.19,0,0,0,.29-2.26l-6.85-14.6A1.26,1.26,0,0,0,67.23,47H63.34c-1.52,0-2.09,1.32-1.71,2.83l3.42,13.09L57,76.77c-.86,1.51-.57,2.92.85,2.92H62A2.62,2.62,0,0,0,63.91,78.56Z" transform="translate(-29.5 -28)"/><path class="cls-1" d="M98.61,61.26c-1.42-.16-5.59-2.19-5-5.5l1.81-10.08C97.66,32.9,86.19,28.16,77.47,28a1.73,1.73,0,0,0-2,1.28l-.57,3.08c-.09.6.19,1.28.76,1.35,7.3,1.13,12.89,4.07,11.47,12l-1.52,8.2c-1.33,7,3.7,9.41,5.22,10l-.1.22c-2.46.91-7.39,3-8.63,9.86L80.6,82.24c-1.42,7.9-7.49,11.36-15.55,12a1.62,1.62,0,0,0-1.33,1.35l-.38,3.09A1.21,1.21,0,0,0,64.77,100c8.81-.15,21.33-2.63,24.07-17.75l1.81-9.93c.57-3.38,4.74-5.19,6.82-5.49A1.92,1.92,0,0,0,99,65.47l.47-3C99.65,61.86,99.08,61.41,98.61,61.26Z" transform="translate(-29.5 -28)"/></svg>